<svg xmlns="http://www.w3.org/2000/svg" viewBox="0 0 70.46 13.94" xmlns:v="https://vecta.io/nano"><path d="M8.14 11.8c-1.1 0-1.89-.58-2.35-1.72H4.78c-.27.68-.86 1.72-2.35 1.72C1.05 11.8 0 10.82 0 9.51c0-.52.09-.94.38-1.72l1.87-5.05C2.63 1.72 3.26 0 5.28 0c2.04 0 2.67 1.72 3.05 2.75l1.87 5.04c.29.78.38 1.2.38 1.72 0 1.31-1.05 2.29-2.44 2.29z"/><path d="M16.08 11.8c-1.26 0-1.82-.71-2.52-1.62l-.57-.72c-.09 1.37-1.1 2.34-2.47 2.34-1.43 0-2.47-1.06-2.47-2.53V2.65c0-1.47 1.04-2.53 2.47-2.53 1.24 0 1.8.71 2.52 1.61l.58.73c.09-1.37 1.1-2.34 2.47-2.34 1.43 0 2.47 1.06 2.47 2.53v6.62c-.01 1.47-1.05 2.53-2.48 2.53z"/><path d="M24.15 11.8c-1.1 0-1.89-.58-2.35-1.72h-1.01c-.27.68-.86 1.72-2.35 1.72-1.39 0-2.44-.99-2.44-2.29 0-.52.09-.94.38-1.72l1.87-5.05C18.64 1.72 19.27 0 21.29 0c2.04 0 2.67 1.72 3.05 2.75l1.87 5.04c.29.78.38 1.2.38 1.72 0 1.31-1.05 2.29-2.44 2.29z"/><path d="M31.4 11.8c-1.15 0-1.86-.8-2.25-1.24l-.32-.36c-.34.96-1.21 1.59-2.32 1.59-1.43 0-2.47-1.06-2.47-2.53V2.65c0-1.47 1.04-2.53 2.47-2.53 1 0 1.81.52 2.21 1.34l.33-.36c.6-.67 1.22-.98 2.02-.98 1.17 0 2.47 1 2.47 2.44 0 .63-.27 1.26-.79 1.81L31.43 5.7l1.56 1.69c.4.43.94 1.01.94 1.95-.01 1.41-1.09 2.46-2.53 2.46zm11.14 0c-1.43 0-2.47-1.06-2.47-2.53V8.25h-.62v1.02c0 1.47-1.04 2.53-2.47 2.53s-2.47-1.06-2.47-2.53V2.65c0-1.47 1.04-2.53 2.47-2.53s2.47 1.06 2.47 2.53v.8h.62v-.8c0-1.47 1.04-2.53 2.47-2.53s2.47 1.06 2.47 2.53v6.62c0 1.47-1.04 2.53-2.47 2.53z"/><path d="M45.42 11.73a2.41 2.41 0 0 1-2.47-2.47v-6.6A2.41 2.41 0 0 1 45.42.19h2.97c1.41 0 2.47 1.03 2.47 2.4 0 .71-.27 1.33-.73 1.76.37.42.57.97.57 1.59 0 .61-.2 1.16-.56 1.58.51.44.8 1.08.8 1.81 0 1.37-1.06 2.4-2.47 2.4h-3.05z"/><path d="M50.97 11.73a2.41 2.41 0 0 1-2.47-2.47v-6.6A2.41 2.41 0 0 1 50.97.19h2.29c2.26 0 3.9 1.57 3.9 3.73 0 .44-.08.85-.25 1.25.61.66.94 1.53.94 2.48 0 1.96-1.4 4.08-4.47 4.08h-2.41z"/><path d="M63.28 11.8c-1.1 0-1.89-.58-2.35-1.72h-1.01c-.27.68-.86 1.72-2.35 1.72-1.39 0-2.44-.99-2.44-2.29 0-.52.09-.94.38-1.72l1.87-5.05C57.77 1.72 58.4 0 60.42 0c2.04 0 2.67 1.72 3.05 2.75l1.87 5.04c.29.78.38 1.2.38 1.72 0 1.31-1.05 2.29-2.44 2.29z"/><path d="M65.89 11.8c-1.43 0-2.47-1.06-2.47-2.53V4.95c-1.27-.19-2.1-1.13-2.1-2.36 0-1.39 1.05-2.4 2.51-2.4h4.13c1.45 0 2.51 1.01 2.51 2.4 0 1.26-.86 2.2-2.1 2.37v4.31c-.01 1.47-1.05 2.53-2.48 2.53z"/><g fill="#fff"><path d="M8.16 11.3c-1.42 0-1.82-1.19-1.97-1.63l-.03-.08H4.44l-.02.06c-.15.46-.55 1.65-1.97 1.65-1.12 0-1.94-.75-1.94-1.79 0-.46.08-.82.35-1.54l1.87-5.05C3.11 1.9 3.62.5 5.29.5 6.98.5 7.5 1.9 7.87 2.92l1.87 5.05c.27.73.35 1.09.35 1.55 0 1.03-.81 1.78-1.93 1.78z"/><path d="M16.09 11.3c-1.02 0-1.46-.57-2.13-1.43L12.5 8.04v1.23c0 1.2-.81 2.03-1.97 2.03s-1.97-.84-1.97-2.03V2.65c0-1.2.81-2.03 1.97-2.03 1 0 1.42.53 2.12 1.42l1.47 1.84V2.65c0-1.2.81-2.03 1.97-2.03s1.97.84 1.97 2.03v6.62c0 1.2-.81 2.03-1.97 2.03z"/><path d="M24.16 11.3c-1.42 0-1.82-1.19-1.97-1.63l-.03-.08h-1.72l-.02.07c-.15.46-.55 1.65-1.97 1.65-1.12 0-1.94-.75-1.94-1.79 0-.46.08-.82.35-1.54l1.87-5.05C19.11 1.9 19.63.5 21.3.5c1.69 0 2.21 1.4 2.58 2.42l1.87 5.05c.27.73.35 1.09.35 1.55 0 1.03-.81 1.78-1.94 1.78z"/><path d="M31.41 11.3c-.93 0-1.52-.67-1.87-1.07L28.5 9.07v.2c0 1.2-.81 2.03-1.97 2.03s-1.97-.84-1.97-2.03V2.65c0-1.2.81-2.03 1.97-2.03 1.1 0 1.88.75 1.96 1.84l.94-1.03c.5-.57 1-.82 1.65-.82.93 0 1.97.83 1.97 1.94 0 .5-.23 1.01-.66 1.47l-1.66 1.67 1.88 2.04c.37.4.8.87.8 1.61.02 1.12-.85 1.96-2 1.96zm11.14 0c-1.16 0-1.97-.84-1.97-2.03V7.75h-1.62v1.52c0 1.2-.81 2.03-1.97 2.03s-1.97-.84-1.97-2.03V2.65c0-1.2.81-2.03 1.97-2.03s1.97.84 1.97 2.03v1.3h1.62v-1.3c0-1.2.81-2.03 1.97-2.03s1.97.84 1.97 2.03v6.62c0 1.2-.81 2.03-1.97 2.03z"/><path d="M45.43 11.23a1.93 1.93 0 0 1-1.97-1.97v-6.6A1.93 1.93 0 0 1 45.43.69h2.97c1.14 0 1.97.8 1.97 1.9 0 .8-.41 1.42-1.07 1.72.56.32.9.9.9 1.63s-.35 1.32-.92 1.64c.72.27 1.17.92 1.17 1.75 0 1.1-.83 1.9-1.97 1.9h-3.05z"/><path d="M50.99 11.23a1.93 1.93 0 0 1-1.97-1.97v-6.6A1.93 1.93 0 0 1 50.99.69h2.29c2 0 3.4 1.33 3.4 3.23a2.65 2.65 0 0 1-.36 1.35c.66.57 1.05 1.41 1.05 2.38 0 1.78-1.23 3.58-3.97 3.58h-2.41z"/><path d="M63.3 11.3c-1.42 0-1.82-1.19-1.97-1.63l-.03-.08h-1.72l-.02.07c-.15.46-.55 1.65-1.97 1.65-1.12 0-1.94-.75-1.94-1.79 0-.46.08-.82.35-1.54l1.87-5.05c.37-1.02.89-2.42 2.56-2.42 1.69 0 2.21 1.4 2.58 2.42l1.87 5.05c.27.73.35 1.09.35 1.55 0 1.02-.81 1.77-1.93 1.77z"/><path d="M65.9 11.3c-1.16 0-1.97-.84-1.97-2.03V4.49h-.09c-1.18 0-2.01-.78-2.01-1.9s.83-1.9 2.01-1.9h4.13c1.18 0 2.01.78 2.01 1.9s-.83 1.9-2.01 1.9h-.09v4.78c-.01 1.2-.82 2.03-1.98 2.03z"/></g><path d="M3.68 3.19c.35-.95.65-1.76 1.62-1.76 1 0 1.29.82 1.64 1.76l1.87 5.05c.26.68.29.91.29 1.2 0 .48-.38.79-.94.79-.64 0-.84-.41-1.02-.95l-.23-.76H3.72l-.24.76c-.18.54-.38.95-1.02.95-.55 0-.94-.31-.94-.79 0-.29.04-.52.29-1.2l1.87-5.05zm1.68.4h-.02L4.29 6.72h2.04l-.97-3.13z" fill="#3189ca"/><path d="M9.56 2.58c0-.68.41-1.03.97-1.03.52 0 .7.23 1.34 1.04l3.23 4.04h.02V2.58c0-.68.41-1.03.97-1.03s.97.35.97 1.03V9.2c0 .68-.41 1.03-.97 1.03-.52 0-.71-.23-1.34-1.04l-3.23-4.04h-.02V9.2c0 .68-.41 1.03-.97 1.03s-.97-.35-.97-1.03V2.58z" fill="#278b44"/><path d="M19.69 3.19c.35-.95.65-1.76 1.62-1.76 1 0 1.29.82 1.64 1.76l1.87 5.05c.25.68.29.91.29 1.2 0 .48-.38.79-.94.79-.64 0-.84-.41-1.02-.95l-.24-.77h-3.19l-.24.77c-.18.54-.38.95-1.02.95-.55 0-.94-.31-.94-.79 0-.29.04-.52.29-1.2l1.88-5.05zm1.68.4h-.02L20.3 6.72h2.04l-.97-3.13z" fill="#cc1a71"/><path d="M25.57 2.58c0-.68.41-1.03.97-1.03s.97.35.97 1.03v2.38l2.67-2.91c.38-.43.62-.49.91-.49.43 0 .97.42.97.94 0 .29-.18.56-.38.78l-2.31 2.33 2.53 2.75c.3.32.54.58.54.94 0 .62-.48.96-1.02.96-.52 0-.89-.47-1.2-.82l-2.71-3.05V9.2c0 .68-.41 1.03-.97 1.03s-.97-.35-.97-1.03V2.58z" fill="#8d3e6e"/><path d="M37.97 9.2c0 .68-.41 1.03-.97 1.03s-.97-.35-.97-1.03V2.58c0-.68.41-1.03.97-1.03s.97.35.97 1.03v2.3h3.62v-2.3c0-.68.41-1.03.97-1.03s.97.35.97 1.03V9.2c0 .68-.41 1.03-.97 1.03s-.97-.35-.97-1.03V6.68h-3.62V9.2z" fill="#cf2427"/><path d="M44.47 2.59c0-.62.47-.97.97-.97h2.97c.61 0 .97.36.97.9 0 .56-.36.9-.97.9h-2v1.55h1.83c.61 0 .97.35.97.9s-.36.9-.97.9h-1.83v1.6h2.07c.61 0 .97.34.97.9 0 .54-.36.9-.97.9h-3.05c-.5 0-.97-.35-.97-.97V2.59z" fill="#268542"/><path d="M50.03 2.59c0-.62.47-.97.97-.97h2.29c1.48 0 2.4.91 2.4 2.23 0 .88-.61 1.39-1.02 1.63 1.04.2 1.71 1.03 1.71 2.1 0 1.35-.88 2.58-2.97 2.58H51c-.5 0-.97-.35-.97-.97v-6.6zm1.94 2.36h.89c.55 0 .89-.28.89-.8s-.32-.8-.89-.8h-.89v1.6zm0 3.48h1.22c.65 0 1.18-.23 1.18-.88s-.6-.88-1.18-.88h-1.22v1.76z" fill="#df6e26"/><path d="M58.82 3.19c.35-.95.65-1.76 1.62-1.76 1 0 1.29.82 1.64 1.76l1.87 5.05c.25.68.29.91.29 1.2 0 .48-.38.79-.94.79-.64 0-.84-.41-1.02-.95l-.24-.77h-3.19l-.24.77c-.18.54-.38.95-1.02.95-.55 0-.94-.31-.94-.79 0-.29.04-.52.29-1.2l1.88-5.05zm1.68.4h-.02l-1.04 3.13h2.04l-.98-3.13z" fill="#933d6e"/><path d="M64.94 3.42h-1.09c-.65 0-1.01-.36-1.01-.9 0-.56.36-.9 1.01-.9h4.13c.65 0 1.01.34 1.01.9 0 .54-.36.9-1.01.9h-1.09V9.2c0 .68-.41 1.03-.97 1.03s-.97-.35-.97-1.03V3.42z" fill="#318bcb"/></svg>