<svg xmlns="http://www.w3.org/2000/svg" xmlns:xlink="http://www.w3.org/1999/xlink" viewBox="0 0 92.53 108.76" xmlns:v="https://vecta.io/nano"><style><![CDATA[.V{fill-rule:evenodd}.W{fill:#df8701}.X{fill:#ffcb05}]]></style><defs><linearGradient id="A" x1="78.91" y1="103.97" x2="81.17" y2="91.13" xlink:href="#P"><stop offset="0" stop-color="#f5821f"/><stop offset="1" stop-color="#ffcb05"/></linearGradient><linearGradient id="B" x1="69.14" y1="109.58" x2="83.1" y2="30.37" xlink:href="#A"/><linearGradient id="C" x1="25" y1="63.44" x2="11.07" y2="71.48" xlink:href="#A"/><linearGradient id="D" x1="27.06" y1="95.17" x2="52.03" y2="64.34" xlink:href="#A"/><linearGradient id="E" x1="29.89" y1="100.56" x2="33.85" y2="78.13" xlink:href="#A"/><linearGradient id="F" x1="48.34" y1="15.53" x2="35.81" y2="69.81" xlink:href="#P"><stop offset="0" stop-color="#ed1c24"/><stop offset="1" stop-color="#9d2d30"/></linearGradient><linearGradient id="G" x1="46.15" y1="16.44" x2="49.63" y2="-1.73" xlink:href="#F"/><linearGradient id="H" x1="59.84" y1="20.7" x2="68.09" y2="46.1" xlink:href="#F"/><linearGradient id="I" x1="41.74" y1="14.5" x2="16.38" y2="31.61" xlink:href="#F"/><linearGradient id="J" x1="39.98" y1="44.93" x2="45.44" y2="13.92" xlink:href="#A"/><linearGradient id="K" x1="29.23" y1="30.74" x2="30.39" y2="47.29" xlink:href="#P"><stop offset="0" stop-color="#0095d9"/><stop offset="1" stop-color="#fff"/></linearGradient><linearGradient id="L" x1="51.65" y1="34.29" x2="55.62" y2="50.21" xlink:href="#K"/><linearGradient id="M" x1="36.47" y1="65.88" x2="40.74" y2="31.06" xlink:href="#A"/><radialGradient id="N" cx="54.67" cy="41.1" r="3.97" gradientTransform="matrix(-1, 0, 0, 1, 92.53, 0)" xlink:href="#P"><stop offset="0" stop-color="#f6adcd"/><stop offset=".11" stop-color="#f490c2"/><stop offset=".33" stop-color="#f15daf"/><stop offset=".53" stop-color="#ef35a0"/><stop offset=".72" stop-color="#ed1895"/><stop offset=".88" stop-color="#ec068e"/><stop offset="1" stop-color="#ec008c"/></radialGradient><linearGradient id="O" x1="38.62" y1="51.35" x2="37.76" y2="56.76" xlink:href="#P"><stop offset="0"/><stop offset="1" stop-color="#ed1c24"/></linearGradient><linearGradient id="P" gradientUnits="userSpaceOnUse"/></defs><g class="V"><path d="M83.78 87.32a4.41 4.41 0 0 0-2.49 4.15c-.06 3.2 1.36 3.94 1.36 3.94a5.72 5.72 0 0 1-3.25-3.58c-1-2.82-.76 10.34 8.2 6a4.61 4.61 0 0 1-2.8 2c-2.22.48 2.73 2.83 4.5 1.69a4.64 4.64 0 0 1-2.59 1.15c-2.25.24-.47 1.31 1.48 1.48s4.11-.59 4.32-.94a8.6 8.6 0 0 1-5.27 5 11.11 11.11 0 0 1-9.59-1.48c-1.36-1.18-.71 1.25-.17 2s-8.06-4.47-7.34-8.54c.17-1-1.42 2.73.06 5.28s-3.56-3-3.32-9.13a10.86 10.86 0 0 1 4.91-8.77 2.1 2.1 0 0 0-1.22-.77c-.65-.14 7.43-3.07 13.21.52z" fill="url(#A)"/><path d="M83.08 87.38s-1.65.81-2 3.75 1 3.74 1 3.74a9.68 9.68 0 0 1-2.65-3.57c-1.09-2.53-1.49 10.28 7.3 7.08a2.71 2.71 0 0 1-2.27 1.2c-1.81.2 0 1.67 2.28 2.3a6.62 6.62 0 0 0 1.7.12 8.76 8.76 0 0 1-3 .57c-3.59 0 3 3.32 5.64 1.65.38-.25-1.7 2.91-5.64 3.73a10.59 10.59 0 0 1-8.83-2.25c-1.16-1.22-.78 1.08-.35 1.78s-7.12-4.85-6.06-8.53c.26-.91-1.59 2.38-.44 4.86s-3-3.11-2.25-8.71a10.07 10.07 0 0 1 5.43-7.62 2.09 2.09 0 0 0-1.08-.83c-.66-.15 6.14-2.4 11.22.73z" fill="#ed1c24"/><path d="M65.17 75.44c7.94-17.79 27.14-9.86 23.49 4-1 4-4.2 6.93-5.38 7.94s-.71-.29-.71-.29 6.62-6.23 4.55-11.92c-1.63-4.49-6.32-5.87-9.53-5.64-4.7.33-8.2 4.23-10.53 7.95-3.08 4.92-4.26 8-6.33 8.83-1.91.82-1-1.49-.39-2 2.94-2.48 3.16-5.14 4.83-8.87z" fill="#f5821f"/><path d="M64.36 75.33c8.39-18.78 28.64-10.41 24.8 4.19-1.1 4.18-4.44 7.32-5.68 8.39s-.75-.32-.75-.32 7-6.56 4.8-12.57c-1.72-4.74-6.67-6.2-10.06-6-5 .35-8.65 4.47-11.11 8.4-3.25 5.19-4.5 8.38-6.68 9.32-2 .87-1-1.58-.41-2.11 3.1-2.56 3.34-5.37 5.09-9.3z" fill="url(#B)"/><path d="M30.38 62.58s-7.33-6.24-14.15-5.53C10.06 57.69.17 62.08 5 69.93a.16.16 0 0 1 0 .12 5.36 5.36 0 0 0 .54 3 5.23 5.23 0 0 0 2.32 2.35c0 0 0 .09.06.22.71 3.14 3.22 5.27 6.63 3.83 2.46-1.05 1.27-4.28 4.88-4.28s8.38-.09 9.37-.53 5.37-6.7 1.58-12.06z" fill="#f5821f"/><path d="M28.12 61.58S22 56.9 15.66 57.73C10.45 58.41 1.13 62.58 5 69.64a6.07 6.07 0 0 1 1.41-2.92c.71-.78 1.53-1.27.17.2a4.88 4.88 0 0 0-1.07 5 6.29 6.29 0 0 0 2 3c.28.16.35-.47.63-.91a6.17 6.17 0 0 1 .95-1.13c1-.91 1.49-1.16 1.34-.91s-.87.66-1.6 1.43a2.27 2.27 0 0 0-.47 2.72c1.33 3.17 4 3.81 6.29 2.75s.92-4.07 4.35-4.07 8.29-.06 9.23-.48 3.5-7.64-.11-12.74z" fill="url(#C)"/><path d="M47.68 60a16.2 16.2 0 0 0-4.25 12.76c.94 7.68 5.31 7.68 8.39 7.56s8.62-1.89 10 6.15-7.33 10.4-9.22 9.69-5 .35-3.42 1.77c1 .93 3.28.38 5.54 1.19 5.15 1.86 4.51 10.33-2.32 9.46-18.62-2.38-38.86-37.44-29.3-57.33C27.29 42.54 47.68 60 47.68 60z" fill="url(#D)"/><path d="M37 70.44s-6.09-2.11-7 9.45-2.3 7.83-7 7.45c-8.17-.64-4.47 9.67-3.34 9a5.28 5.28 0 0 1 .09.57c.27 1 1.78 4.33 3.13 2.83.1-.1.06-.14.12 0 1.18 2.75 2.58 2.85 3.58 2.9.53 0 0 1 3.63 3.15 6.91 4 15.57-2.8 15.14-16.28S40.21 71.08 37 70.44z" class="X"/><path d="M36.69,71.34s-5.79-2-6.62,9-2.13,7.8-6.61,7.45c-7.88-.62-4.69,7.21-4.32,7.92.21.39.53.39.58,0a7.68,7.68,0,0,1,.72-3.07c.49-.87.48-.75.12,0a6.12,6.12,0,0,0-.14,5.26c1.37,2.46,2.14,1.91,2.42,1.53s-.76-1.53.55-3.62c1-1.62,1.79-2.55,0,.2a3.86,3.86,0,0,0,.2,4.27,6.18,6.18,0,0,0,1.57,1.66c1.43.91,1-.11,1.16-1.39a3.39,3.39,0,0,1,.52-1.4c1.38-2,2.76-3.63.22,0-1.78,2.54.63,4.51,3.16,5.8C37,108.34,45,102.24,44.63,89.44S39.78,72,36.69,71.34Z" fill="url(#E)"/><g fill="#ed1c24"><path d="M56.35 101.89s1.48 2.06.12 5.79a4.7 4.7 0 0 0 1.59-4.68 2.87 2.87 0 0 0-1.71-1.11zm-.1 2.84a5.29 5.29 0 0 1-4.82 2.86 13.88 13.88 0 0 1-7.43-2.21l-.17-.07a22 22 0 0 0 8.64 3.27 6.64 6.64 0 0 0 1.24.06c1.52-.92 2.79-2.21 2.54-3.91z"/><path d="M53.06 104.73a5.29 5.29 0 0 1-4.63 2.85 18.84 18.84 0 0 0 2.55.74c1.31-.89 2.29-2.07 2.08-3.59z"/></g><path d="M70.3,26a21.08,21.08,0,0,1,8,7.8c2.72,5.08,2.48,7.56,2.48,7.56s-2.84-3.9-4.73-3.78,2.18,3.1,1.66,9.93-4,9.81-4,9.81-.59-4-1.65-3.78-.8,2.56-3.43,5a12.33,12.33,0,0,1-5.32,3s1-3,0-3.43c-.29-.14-.53,0-.78.27-1.82,2.11-2.38,3.22-5.95,4.22,0,0,.35-3.89-.83-3.66-1.4.28-2,3.63-8.49,5.34-.37.1.57-3.16-.72-3.83-.51-.27-2.08,1.93-4.35,3.38s-5.54,1.13-5,2.06c.45.76-3.08-.94-4.86-3.2-1-1.27-1-3.39-1.28-4-.71-1.66-1.65,2.12-1.18,3.3.17.44-2.68-.33-4.9-2.12-1.49-1.21-2.35-3.13-3.14-4.49a12.94,12.94,0,0,0,0,3.78c.36,1.18-8.7-3.56-9.81-10.76a6.61,6.61,0,0,0-2,5.32c.2,2.9-6.85-10.6-1.54-16.78a3,3,0,0,0-3,1.77,14.77,14.77,0,0,1,1-7.68c1-2.47,3.52-5.79,5.44-5.79.56,0-.86-.52-2.29-.29a4.32,4.32,0,0,0-1.85,1c-.83.95.77-3.52,3.78-5,2-1,19.57-8.68,31.93-8S61.93,19.62,70.3,26Z" fill="url(#F)"/><path d="M46.54 27.33a7.24 7.24 0 0 1-1.48-5.21 22.54 22.54 0 0 1 .36-2.79 6.52 6.52 0 0 0-4.27 4.8 19.79 19.79 0 0 0-.47 5.57s-4-3.31-4-8.12 1.06-6.1 1.06-6.1A9.86 9.86 0 0 0 32.51 19c-2.3 2.9-1.83 3.32-1.83 3.32s-1.62-3.27-1-6a3.16 3.16 0 0 0 .08-.52.81.81 0 0 1 0-.29c-.19-.87-2.08 2-2.08 3.41 0 1.66-7.88-3.87-1.41-7.23C27.39 11.08 24 9.54 24 9.54c1.1-1.88 3.3-3.72 5.35-1.23C31.24 2.83 25.87.67 28 1.16a12 12 0 0 1 5.45 3.46A3.9 3.9 0 0 1 37.33 4c2.72-2.47 6.89-2.35 4.74-1.55a3.22 3.22 0 0 0-2 2.38l1.25.37a14.37 14.37 0 0 0 2.61.57c.79-1.33-.72-2.33.56-1.73a2.43 2.43 0 0 1 1.31 1.6c1.2-.52 1.51-2.09-.13-5.59-.19-.4 2.78 1.68 4.28 3.64 1.33 1.74.82 2.71 2.66 2.88C54.65 3 63.4 1.3 60.1 3a4.66 4.66 0 0 0-2.53 3.39 24.62 24.62 0 0 1 4.43.3 33.09 33.09 0 0 1 6.26 1.41s-7.16 1.13-7.69 3.44 1.82-.34 5 4a14 14 0 0 1 2.36 9.57c-2.83-6.63-7.51-7.77-8.28-6.4-.45.79 1.41 4.81 2 6.84.18.68.75 3 .51 3.07s-1-2.05-1.33-2.39a49.41 49.41 0 0 0-4.91-5.19c-2.63-1.94-7.01-2.37-9.38 6.29z" fill="url(#G)"/><path d="M66.52 29.66S74 30 77.87 24.94C84.73 16 71.65 5.22 63.8 11.35a11.35 11.35 0 0 0-4 10.87c.67 2.96 1.2-2.6 6.72 7.44z" class="X"/><path d="M61.44 22.1s2.36-8.51 7.68-7c3.66 1.06 4.39 5.36 2.65 7.85s-7.26 3.14-7.26 3.14-2.83-3.04-3.07-3.99z" class="W"/><path d="M26.34 18.44s2.66-6.38-1.83-10.7C17.71 1.21 9.45 5.06 8.68 13.5c-.46 4.95 4 9.81 8.68 10.85 3.19.71 3.64-3.55 8.98-5.91z" class="X"/><path d="M25.4 18.44s-.95-7.21-5.32-7.68S14.88 14.18 15 16s2.24 5.43 4.61 6.5 2.71-2.05 5.79-4.06z" class="W"/><path d="M67.55 35.81s-1-3.38-1.83-3.2.59 1.66.23 5.33-1.6 4-1.6 4a5.87 5.87 0 0 0-1.3-5.45c-2.25-2.37-6.68-12.73-6.68-12.73 4.11-6.7 13.37 4.73 11.18 12.05z" fill="url(#H)"/><path d="M18.55 23.84C15.76 29.29 17 32.31 17 32.31s.94-2.37 1.89-2.72-.53 2.13-.12 4.86S20 37.29 20 37.29s-.42-4.56 2.36-4.45 10.39-15.17 10.39-15.17c-7.7-1.77-12.46 2.75-14.2 6.17z" fill="url(#I)"/><path d="M62.62 32.26a17.13 17.13 0 0 1-4.13 12.41c-1.42 1.42-14.42 3.9-21.16 2.6s-15.48-6-15.95-9.81C19.66 23.67 29.81 14.89 43.48 16c8.52.62 18.23 7.1 19.14 16.26z" fill="url(#J)"/><path d="M54.31 43.7s2.56-4.12.9-8.44-4.2-4-5.44-2.73-2.25 3.38-2.25 6.82a9.13 9.13 0 0 0 1.27 5.15s1.29-.75 5.52-.8zm-24.84-2.41s3.93-2.81 3.46-7.5c-.44-4.31-3.44-5.1-5.68-3.64-2.77 1.82-3.18 6.23-1.78 9 0 .01 2.16-.64 4 2.14z" fill="#fff"/><path d="M31.9 30.79a2.91 2.91 0 0 0-1.73.42 8.3 8.3 0 0 0-3.84 6 8.53 8.53 0 0 0 0 1.82l.21.06a4.28 4.28 0 0 1 2.82 2l.12.16c.2-.14 3.92-2.93 3.46-7.49a6 6 0 0 0-1.04-2.97z" fill="url(#K)"/><path d="M32.63 32.28c-2.12-.5-4.14 2.39-4.61 4.08a11.37 11.37 0 0 0-.29 3.21 5 5 0 0 1 1.62 1.55l.12.16c.2-.14 3.92-2.93 3.46-7.49a7.91 7.91 0 0 0-.3-1.51z"/></g><path d="M26.22 31a.14.14 0 0 0 .19 0 .14.14 0 0 0 0-.2s-2.88-2-3-3.74a.13.13 0 0 0-.15-.13.14.14 0 0 0-.13.15c.1 1.86 3.08 3.92 3.09 3.92zm-.61.9a.14.14 0 0 0 .17-.09.15.15 0 0 0-.09-.18s-3.42-1-4.29-4a.15.15 0 0 0-.17-.1.15.15 0 0 0-.1.18c.87 3.16 4.47 4.19 4.48 4.19zm-.43 1.1a.15.15 0 0 0 .16-.12.14.14 0 0 0-.11-.16s-3.31-.44-4.25-2.36a.14.14 0 1 0-.25.13c1.01 2 4.44 2.45 4.45 2.51zm30.13 2.25c-.075.025-.115.105-.09.18s.105.115.18.09c0 0 3.89-1.27 4.77-4.07a.14.14 0 0 0-.09-.17.15.15 0 0 0-.18.09c-.84 2.63-4.57 3.88-4.59 3.88zm5.75-.44c.052-.058.048-.148-.01-.2s-.148-.048-.2.01a5.88 5.88 0 0 1-5.2 1.68.14.14 0 0 0-.16.12.13.13 0 0 0 .11.15 6.18 6.18 0 0 0 5.46-1.76zm-.89 3.82a.13.13 0 0 0 .1-.17.14.14 0 0 0-.17-.1 5.76 5.76 0 0 1-4.27-.57.13.13 0 0 0-.19 0 .14.14 0 0 0 0 .19 6.05 6.05 0 0 0 4.53.65z"/><g class="V"><path d="M55.15,35.11c-.85-1.14-1.89-2-3.19-1-2.61,1.85-2.23,7.27-1.21,9.91a24,24,0,0,1,3.56-.27s2.56-4.12.9-8.44Z" fill="url(#L)"/><path d="M55.39 35.78c-2.22-1.51-3.28.56-3.72 2.43a7.59 7.59 0 0 0 .69 5.57l2-.08a10.58 10.58 0 0 0 1.03-7.92z"/><path d="M56.38 26.31c-1.53-1-3.27-1.13-3.88-.22s.13 2.48 1.66 3.51 3.27 1.13 3.88.22-.13-2.48-1.66-3.51zm-26.57-3.54c-1.47.55-2.4 1.7-2.08 2.57s1.78 1.14 3.25.59 2.4-1.7 2.07-2.57-1.78-1.14-3.24-.59z" class="W"/><path d="M38.16 41.25s-6-.46-7.48.31c-1.16.6-1.47-2-4.15-2.79-4.15-1.28-11.41-.11-12.16 5.13-.07.53-.16 1-.06 1s.32-.45.74-.74a2.79 2.79 0 0 1 1-.38c.43 0-.44 1-.64 2.3-.27 1.7.26 3.38.47 3S17 47 17.3 47.49c1.3 2.09 7.32 9.57 15 7.31l-.74-1.68s1.89 5.74 6.74 5.51 6.1-2.79 6.1-2.79a3.66 3.66 0 0 1-.72.9c-.33.32-.73.55-.72.59.44 1.36 12 3.61 16.12-4.16a1.56 1.56 0 0 1 .53 1.62c-.19.87 1.95-1.08 1.66-3.51s-.36-2.08-.36-2.08 1.66-.06 2.25.71-1-4.86-6-5.86a15.78 15.78 0 0 0-8.71.59 16 16 0 0 0-10.29-3.39z" fill="url(#M)"/><path d="M38.37 40.37c-6.13-.3-4.77 4.62-.06 4.92 2.65.17 5.45-1 4.89-3-.42-1.47-3.7-1.92-4.83-1.92z" fill="url(#N)"/><path d="M43.12 51.28s-1.79 3.9-5.07 3.61-3.89-4.77-3.89-4.77a6.76 6.76 0 0 0 2-.59 6.33 6.33 0 0 0 1.88-1.45 7.49 7.49 0 0 0 2.45 2.36 5.67 5.67 0 0 0 2.63.84z"/><path d="M42.16 52.8a4.85 4.85 0 0 1-4.11 2.09 4.17 4.17 0 0 1-3.32-2.79 7.55 7.55 0 0 1 7.43.7z" fill="url(#O)"/><path d="M54.89 51.74a2.6 2.6 0 1 1 2.6-2.6 2.61 2.61 0 0 1-2.6 2.6zm-33.45-4.12a2.47 2.47 0 1 1 2.47-2.47 2.48 2.48 0 0 1-2.47 2.47z" class="W"/><path d="M28.5 43.8a.45.45 0 1 1 .389-.675.45.45 0 0 1-.39.675zM47.45 47a.38.38 0 1 1 .318-.375.38.38 0 0 1-.319.375z"/></g><path d="M49 47.75a.16.16 0 0 0-.17.11.14.14 0 0 0 .11.17s1.08.21 1.19 1.89a.14.14 0 0 0 .15.13.15.15 0 0 0 .13-.15C50.25 48 49 47.76 49 47.75zm-20.41-2.39a.16.16 0 0 0 .18-.09.14.14 0 0 0-.09-.18 2 2 0 0 0-2.84 1.68.13.13 0 1 0 .27.05 1.77 1.77 0 0 1 2.48-1.46zm18.9 1.06a.14.14 0 0 0-.13.15.12.12 0 0 0 .14.13S64.6 46 71.06 50a.14.14 0 0 0 .19 0 .15.15 0 0 0 0-.2c-6.58-4.09-23.71-3.38-23.76-3.38zm-19.06-2.94a.13.13 0 0 0 .18-.06.14.14 0 0 0-.06-.19s-9.62-5-25.49-4.13a.14.14 0 0 0-.14.14.15.15 0 0 0 .15.14c15.8-.83 25.33 4.09 25.36 4.1z"/><path d="M49.79 48.76a.15.15 0 0 0 0-.2.14.14 0 0 0-.2 0 7.79 7.79 0 0 1-5.89 2.64 6.81 6.81 0 0 1-5.5-3.2.14.14 0 0 0-.2 0h0 0a5.67 5.67 0 0 1-6.12 1.67 7 7 0 0 1-4.59-4.52.13.13 0 0 0-.17-.1.14.14 0 0 0-.1.17 7.3 7.3 0 0 0 4.77 4.72 5.92 5.92 0 0 0 6.3-1.62 7 7 0 0 0 5.64 3.17 8.12 8.12 0 0 0 6.06-2.73z"/><path d="M47.38 48.74a.35.35 0 1 1 0-.7.35.35 0 1 1 0 .7z" class="V"/><path d="M47.52 48.32a.13.13 0 0 0-.16.11.14.14 0 0 0 .11.16c.05 0 16.51 2.71 27.47 12.26a.15.15 0 0 0 .2 0 .14.14 0 0 0 0-.2C64.1 51 47.57 48.32 47.52 48.32z"/><path d="M46.14 49.61a.34.34 0 0 1-.342-.522.34.34 0 0 1 .624.187.34.34 0 0 1-.282.335z" class="V"/><path d="M46.25 49.15a.15.15 0 0 0-.19.08.14.14 0 0 0 .09.18S56.62 53.3 62 62.82a.13.13 0 0 0 .19 0 .13.13 0 0 0 .05-.19c-5.43-9.56-15.96-13.47-15.99-13.48z"/><path d="M26.54 45.14a.45.45 0 1 1 .39-.225.45.45 0 0 1-.39.225zM29.27 47a.46.46 0 1 1 .45-.46.46.46 0 0 1-.45.46z" class="V"/><path d="M26.48 44.84a.15.15 0 0 0 .15-.13.13.13 0 0 0-.12-.15C26.46 44.55 9 42.42.07 47.29c-.069.039-.094.126-.055.195s.126.094.195.055c8.79-4.83 26.22-2.71 26.27-2.7zm2.72 1.86a.14.14 0 0 0 .12-.16.15.15 0 0 0-.17-.12s-11.61 2-18.26 7.48c-.061.05-.07.139-.02.2s.139.07.2.02c6.59-5.42 18.1-7.41 18.13-7.42z"/></svg>